<?xml version="1.0" encoding="UTF-8" ?>
<svg version="1.1" width="24" height="24" xmlns="http://www.w3.org/2000/svg" shape-rendering="crispEdges">
<rect x="9" y="0" width="6" height="3" fill="#FFFFFF" />
<rect x="7" y="1" width="2" height="4" fill="#FFFFFF" />
<rect x="15" y="1" width="2" height="5" fill="#FFFFFF" />
<rect x="5" y="2" width="2" height="3" fill="#FFFFFF" />
<rect x="17" y="2" width="2" height="3" fill="#FFFFFF" />
<rect x="4" y="3" width="1" height="9" fill="#FFFFFF" />
<rect x="9" y="3" width="1" height="21" fill="#FFFFFF" />
<rect x="12" y="3" width="3" height="12" fill="#FFFFFF" />
<rect x="19" y="3" width="1" height="2" fill="#FFFFFF" />
<rect x="3" y="4" width="1" height="16" fill="#FFFFFF" />
<rect x="20" y="4" width="1" height="1" fill="#FFFFFF" />
<rect x="2" y="5" width="1" height="14" fill="#FFFFFF" />
<rect x="5" y="5" width="1" height="6" fill="#FFFFFF" />
<rect x="10" y="5" width="2" height="11" fill="#FFFFFF" />
<rect x="15" y="6" width="1" height="1" fill="#FFFFFF" />
<rect x="1" y="7" width="1" height="10" fill="#FFFFFF" />
<rect x="6" y="8" width="3" height="3" fill="#FFFFFF" />
<rect x="0" y="9" width="1" height="6" fill="#FFFFFF" />
<rect x="7" y="11" width="2" height="1" fill="#FFFFFF" />
<rect x="8" y="12" width="1" height="11" fill="#FFFFFF" />
<rect x="15" y="12" width="1" height="5" fill="#FFFFFF" />
<rect x="16" y="13" width="1" height="11" fill="#FFFFFF" />
<rect x="4" y="14" width="1" height="7" fill="#FFFFFF" />
<rect x="7" y="14" width="1" height="9" fill="#FFFFFF" />
<rect x="17" y="14" width="4" height="7" fill="#FFFFFF" />
<rect x="5" y="15" width="2" height="7" fill="#FFFFFF" />
<rect x="14" y="15" width="1" height="1" fill="#FFFFFF" />
<rect x="21" y="15" width="1" height="4" fill="#FFFFFF" />
<rect x="10" y="16" width="1" height="1" fill="#FFFFFF" />
<rect x="10" y="19" width="1" height="5" fill="#FFFFFF" />
<rect x="15" y="19" width="1" height="5" fill="#FFFFFF" />
<rect x="11" y="20" width="1" height="4" fill="#FFFFFF" />
<rect x="14" y="20" width="1" height="4" fill="#FFFFFF" />
<rect x="12" y="21" width="2" height="3" fill="#FFFFFF" />
<rect x="17" y="21" width="3" height="1" fill="#FFFFFF" />
<rect x="17" y="22" width="2" height="1" fill="#FFFFFF" />
</svg>