<svg xmlns="http://www.w3.org/2000/svg" width="5200" height="1900" viewBox="0 0 5200 1900">
  <defs>
    <linearGradient id="hero" x1="0" y1="0" x2="1" y2="1">
      <stop offset="0" stop-color="#7067F0"/>
      <stop offset="0.55" stop-color="#AD63EB"/>
      <stop offset="1" stop-color="#FF7A9E"/>
    </linearGradient>
    <linearGradient id="mint" x1="0" y1="0" x2="1" y2="1">
      <stop offset="0" stop-color="#46D7C6"/>
      <stop offset="1" stop-color="#4F8EF7"/>
    </linearGradient>
    <filter id="shadow" x="-20%" y="-20%" width="140%" height="160%">
      <feDropShadow dx="0" dy="12" stdDeviation="18" flood-color="#000" flood-opacity="0.18"/>
    </filter>
    <style>
      .frame{fill:#F5F6FA;stroke:#252A38;stroke-width:2}.side{fill:#171A24}.panel{fill:#fff}.line{stroke:#E2E5ED;stroke-width:1}.t{font-family:Inter,'Noto Sans JP',sans-serif;fill:#171A24}.tw{font-family:Inter,'Noto Sans JP',sans-serif;fill:#fff}.muted{fill:#747B8D}.nav{font-size:14px;font-weight:650}.small{font-size:12px}.body{font-size:14px}.h1{font-size:30px;font-weight:760}.h2{font-size:19px;font-weight:720}.label{font-size:11px;font-weight:700;letter-spacing:.08em}.btn{fill:#665AE8}.pill{fill:#F0EEFF}.pink{fill:#FFF0F4}.mint{fill:#E8FBF8}.soft{fill:#F7F8FC}.stroke{stroke:#E2E5ED;stroke-width:1}.screenlabel{font-family:Inter,sans-serif;font-size:18px;font-weight:750;fill:#D9DCEC}.icon{fill:none;stroke:currentColor;stroke-width:2;stroke-linecap:round;stroke-linejoin:round}
    </style>
  </defs>
  <rect width="5200" height="1900" fill="#10131B"/>
  <text class="tw" x="72" y="58" font-size="28" font-weight="780">PiXiEED — Unified App Concept</text>
  <text class="tw" x="72" y="90" font-size="14" opacity=".62">Editable SVG board · Desktop 1200×760 / Mobile 360×780</text>

  <!-- DESKTOP HOME -->
  <text class="screenlabel" x="72" y="135">01 / HOME — DESKTOP</text>
  <g transform="translate(72 160)" filter="url(#shadow)">
    <rect class="frame" width="1200" height="760" rx="18"/>
    <rect class="side" width="220" height="760" rx="18"/>
    <rect class="side" x="202" width="18" height="760"/>
    <rect x="24" y="24" width="38" height="38" rx="11" fill="url(#hero)"/>
    <text class="tw" x="74" y="49" font-size="20" font-weight="780">PiXiEED</text>
    <g class="tw nav">
      <rect x="16" y="92" width="188" height="44" rx="12" fill="#2C3040"/><text x="52" y="120">ホーム</text><circle cx="34" cy="114" r="7" fill="#8E83FF"/>
      <text x="52" y="174" opacity=".7">マーケット</text><rect x="28" y="160" width="13" height="13" rx="3" fill="#FF7A9E"/>
      <text x="52" y="226" opacity=".7">QR</text><rect x="28" y="211" width="13" height="13" fill="none" stroke="#fff" opacity=".7"/>
      <text x="52" y="278" opacity=".7">PiXiEEDraw</text><path d="M28 266h13v13H28z" fill="#7067F0"/>
      <text x="52" y="330" opacity=".7">カメラ</text><circle cx="34.5" cy="323" r="7" fill="none" stroke="#fff" opacity=".7"/>
    </g>
    <line x1="24" y1="620" x2="196" y2="620" stroke="#303443"/>
    <circle cx="44" cy="670" r="20" fill="#FFB8CB"/><text class="tw" x="76" y="666" font-size="13" font-weight="700">Reine</text><text class="tw" x="76" y="686" font-size="11" opacity=".55">マイページ</text>
    <text class="t h1" x="264" y="64">おかえりなさい</text>
    <rect x="830" y="26" width="320" height="44" rx="14" fill="#fff" class="stroke"/><text class="t muted body" x="866" y="54">作品・素材を検索</text><circle cx="848" cy="48" r="7" fill="none" stroke="#747B8D" stroke-width="2"/>
    <rect x="264" y="94" width="886" height="230" rx="24" fill="url(#hero)"/>
    <text class="tw label" x="300" y="132" opacity=".78">CONTINUE CREATING</text>
    <text class="tw" x="300" y="175" font-size="29" font-weight="760">魔王さま歩行アニメ</text>
    <text class="tw" x="300" y="204" font-size="14" opacity=".8">32 × 32 px · 8 frames · 2分前に保存</text>
    <rect x="300" y="238" width="156" height="48" rx="15" fill="#fff"/><text class="t" x="334" y="268" font-size="14" font-weight="740">制作を続ける</text>
    <g transform="translate(820 112)"><rect width="290" height="194" rx="18" fill="#211E51" opacity=".78"/><g fill="#FFCC75"><rect x="112" y="46" width="16" height="16"/><rect x="128" y="30" width="32" height="16"/><rect x="160" y="46" width="16" height="16"/><rect x="96" y="62" width="96" height="48"/><rect x="112" y="110" width="24" height="44"/><rect x="152" y="110" width="24" height="44"/></g><rect x="112" y="76" width="16" height="12" fill="#232039"/><rect x="160" y="76" width="16" height="12" fill="#232039"/></g>
    <text class="t h2" x="264" y="374">クイックスタート</text>
    <g transform="translate(264 394)"><rect class="panel stroke" width="206" height="118" rx="18"/><circle cx="34" cy="34" r="18" fill="#ECE9FF"/><text class="t" x="66" y="38" font-size="15" font-weight="720">PiXiEEDraw</text><text class="t muted small" x="20" y="78">ドット絵を描く・動かす</text><text class="t" x="20" y="100" font-size="12" font-weight="700" fill="#665AE8">新規作成 →</text></g>
    <g transform="translate(486 394)"><rect class="panel stroke" width="206" height="118" rx="18"/><circle cx="34" cy="34" r="18" fill="#E6FAF7"/><text class="t" x="66" y="38" font-size="15" font-weight="720">カメラ</text><text class="t muted small" x="20" y="78">写真をドット絵へ変換</text><text class="t" x="20" y="100" font-size="12" font-weight="700">起動する →</text></g>
    <g transform="translate(708 394)"><rect class="panel stroke" width="206" height="118" rx="18"/><circle cx="34" cy="34" r="18" fill="#FFF0F4"/><text class="t" x="66" y="38" font-size="15" font-weight="720">QR</text><text class="t muted small" x="20" y="78">作成・読取・管理</text><text class="t" x="20" y="100" font-size="12" font-weight="700">QRを作る →</text></g>
    <g transform="translate(930 394)"><rect class="panel stroke" width="220" height="118" rx="18"/><circle cx="34" cy="34" r="18" fill="#FFF5DF"/><text class="t" x="66" y="38" font-size="15" font-weight="720">販売する</text><text class="t muted small" x="20" y="78">素材を出品・派生する</text><text class="t" x="20" y="100" font-size="12" font-weight="700">出品を始める →</text></g>
    <text class="t h2" x="264" y="568">注目の素材系列</text><text class="t muted body" x="1042" y="568">すべて見る</text>
    <g transform="translate(264 590)"><rect class="panel stroke" width="280" height="130" rx="18"/><rect x="14" y="14" width="102" height="102" rx="14" fill="#2D3150"/><text class="t" x="132" y="42" font-size="15" font-weight="720">剣士キャラクター</text><text class="t muted small" x="132" y="66">大元1・派生12</text><rect x="132" y="82" width="86" height="24" rx="12" fill="#F0EEFF"/><text class="t" x="144" y="99" font-size="11" font-weight="700">¥50,000〜</text></g>
    <g transform="translate(560 590)"><rect class="panel stroke" width="280" height="130" rx="18"/><rect x="14" y="14" width="102" height="102" rx="14" fill="#DDF7F3"/><text class="t" x="132" y="42" font-size="15" font-weight="720">草原タイルセット</text><text class="t muted small" x="132" y="66">大元1・派生7</text><rect x="132" y="82" width="82" height="24" rx="12" fill="#E8FBF8"/><text class="t" x="144" y="99" font-size="11" font-weight="700">¥3,800〜</text></g>
  </g>

  <!-- DESKTOP MARKET -->
  <text class="screenlabel" x="1332" y="135">02 / MARKET — DESKTOP</text>
  <g transform="translate(1332 160)" filter="url(#shadow)">
    <rect class="frame" width="1200" height="760" rx="18"/><rect class="side" width="220" height="760" rx="18"/><rect class="side" x="202" width="18" height="760"/>
    <rect x="24" y="24" width="38" height="38" rx="11" fill="url(#hero)"/><text class="tw" x="74" y="49" font-size="20" font-weight="780">PiXiEED</text>
    <g class="tw nav"><text x="52" y="120" opacity=".7">ホーム</text><rect x="16" y="144" width="188" height="44" rx="12" fill="#2C3040"/><text x="52" y="172">マーケット</text><rect x="28" y="158" width="13" height="13" rx="3" fill="#FF7A9E"/><text x="52" y="226" opacity=".7">QR</text><text x="52" y="278" opacity=".7">PiXiEEDraw</text><text x="52" y="330" opacity=".7">カメラ</text></g>
    <circle cx="44" cy="670" r="20" fill="#FFB8CB"/><text class="tw" x="76" y="666" font-size="13" font-weight="700">Reine</text><text class="tw" x="76" y="686" font-size="11" opacity=".55">マイページ</text>
    <text class="t h1" x="264" y="64">素材マーケット</text><rect x="720" y="26" width="300" height="44" rx="14" fill="#fff" class="stroke"/><text class="t muted body" x="756" y="54">素材・作者・用途で検索</text><rect x="1034" y="26" width="116" height="44" rx="14" fill="#665AE8"/><text class="tw" x="1060" y="54" font-size="13" font-weight="720">素材を出品</text>
    <rect x="264" y="94" width="886" height="116" rx="22" fill="#191D2A"/><text class="tw label" x="294" y="128" opacity=".62">INHERIT &amp; CREATE</text><text class="tw" x="294" y="162" font-size="24" font-weight="740">受け継いで、育てて、次の作品へ。</text><text class="tw" x="294" y="187" font-size="13" opacity=".68">購入した素材を正しく派生し、歴代作者へ収益をつなぐ。</text><circle cx="1080" cy="152" r="38" fill="#FF7A9E"/><path d="M1060 152h40M1084 136l16 16-16 16" fill="none" stroke="#fff" stroke-width="4"/>
    <g class="t body"><rect x="264" y="232" width="84" height="36" rx="18" fill="#29243E"/><text class="tw" x="286" y="255" font-size="12">すべて</text><rect x="360" y="232" width="96" height="36" rx="18" fill="#fff" class="stroke"/><text x="382" y="255" font-size="12">キャラ</text><rect x="468" y="232" width="96" height="36" rx="18" fill="#fff" class="stroke"/><text x="488" y="255" font-size="12">背景</text><rect x="576" y="232" width="106" height="36" rx="18" fill="#fff" class="stroke"/><text x="596" y="255" font-size="12">UI・アイコン</text><rect x="694" y="232" width="110" height="36" rx="18" fill="#fff" class="stroke"/><text x="714" y="255" font-size="12">アニメーション</text></g>
    <text class="t h2" x="264" y="316">おすすめの系列</text><text class="t muted small" x="1074" y="316">並び順：注目</text>
    <g transform="translate(264 338)"><rect class="panel stroke" width="276" height="350" rx="20"/><rect x="12" y="12" width="252" height="190" rx="15" fill="#252A43"/><g fill="#F5C66D"><rect x="98" y="52" width="56" height="78"/><rect x="82" y="68" width="16" height="46"/><rect x="154" y="68" width="16" height="46"/><rect x="102" y="130" width="18" height="34"/><rect x="134" y="130" width="18" height="34"/></g><rect x="24" y="218" width="70" height="24" rx="12" fill="#FFF0F4"/><text class="t" x="37" y="235" font-size="10" font-weight="700">派生12件</text><text class="t" x="18" y="270" font-size="16" font-weight="730">剣士キャラクター系列</text><text class="t muted small" x="18" y="294">ゲーム・動画・配信向け</text><text class="t" x="18" y="330" font-size="16" font-weight="760">¥50,000〜</text><text class="t muted small" x="194" y="330">★ 4.9</text></g>
    <g transform="translate(555 338)"><rect class="panel stroke" width="276" height="350" rx="20"/><rect x="12" y="12" width="252" height="190" rx="15" fill="#DFF8EF"/><path d="M12 160l60-50 42 26 58-72 92 96v42H12z" fill="#6ACB9B"/><rect x="24" y="218" width="64" height="24" rx="12" fill="#E8FBF8"/><text class="t" x="37" y="235" font-size="10" font-weight="700">派生7件</text><text class="t" x="18" y="270" font-size="16" font-weight="730">草原・森タイル系列</text><text class="t muted small" x="18" y="294">RPG・マップ制作向け</text><text class="t" x="18" y="330" font-size="16" font-weight="760">¥3,800〜</text><text class="t muted small" x="194" y="330">★ 4.8</text></g>
    <g transform="translate(846 338)"><rect class="panel stroke" width="304" height="350" rx="20"/><rect x="12" y="12" width="280" height="190" rx="15" fill="#FFE9EF"/><g fill="#FF7A9E"><circle cx="94" cy="100" r="28"/><rect x="138" y="70" width="58" height="58" rx="12"/><path d="M228 72l30 54h-60z"/></g><rect x="24" y="218" width="64" height="24" rx="12" fill="#F0EEFF"/><text class="t" x="37" y="235" font-size="10" font-weight="700">派生4件</text><text class="t" x="18" y="270" font-size="16" font-weight="730">ポップUIキット系列</text><text class="t muted small" x="18" y="294">ゲーム・アプリUI向け</text><text class="t" x="18" y="330" font-size="16" font-weight="760">¥8,400〜</text><text class="t muted small" x="220" y="330">★ 4.7</text></g>
  </g>

  <!-- DESKTOP PRODUCT -->
  <text class="screenlabel" x="2592" y="135">03 / PRODUCT DETAIL — DESKTOP</text>
  <g transform="translate(2592 160)" filter="url(#shadow)">
    <rect class="frame" width="1200" height="760" rx="18"/><rect class="side" width="220" height="760" rx="18"/><rect class="side" x="202" width="18" height="760"/>
    <rect x="24" y="24" width="38" height="38" rx="11" fill="url(#hero)"/><text class="tw" x="74" y="49" font-size="20" font-weight="780">PiXiEED</text><g class="tw nav"><text x="52" y="120" opacity=".7">ホーム</text><rect x="16" y="144" width="188" height="44" rx="12" fill="#2C3040"/><text x="52" y="172">マーケット</text><text x="52" y="226" opacity=".7">QR</text><text x="52" y="278" opacity=".7">PiXiEEDraw</text><text x="52" y="330" opacity=".7">カメラ</text></g>
    <text class="t small muted" x="264" y="48">マーケット / キャラクター / 剣士キャラクター系列</text>
    <g transform="translate(264 76)"><rect width="480" height="390" rx="24" fill="#242941"/><g fill="#F2C568"><rect x="180" y="82" width="100" height="138"/><rect x="150" y="110" width="30" height="82"/><rect x="280" y="110" width="30" height="82"/><rect x="186" y="220" width="34" height="80"/><rect x="240" y="220" width="34" height="80"/></g><rect x="196" y="130" width="18" height="14" fill="#252A43"/><rect x="246" y="130" width="18" height="14" fill="#252A43"/><rect x="20" y="336" width="104" height="34" rx="17" fill="#fff" opacity=".94"/><text class="t" x="42" y="358" font-size="12" font-weight="700">プレビュー 8枚</text></g>
    <g transform="translate(780 76)"><rect class="panel stroke" width="370" height="560" rx="24"/><rect x="22" y="22" width="88" height="26" rx="13" fill="#FFF0F4"/><text class="t" x="39" y="40" font-size="11" font-weight="700">一次素材</text><text class="t" x="22" y="86" font-size="27" font-weight="760">剣士キャラクター</text><text class="t muted body" x="22" y="116">by PixelForge</text><text class="t" x="22" y="170" font-size="28" font-weight="780">¥50,000</text><text class="t muted small" x="22" y="194">商用・ゲーム利用を含む</text><line class="line" x1="22" y1="218" x2="348" y2="218"/><text class="t" x="22" y="250" font-size="13" font-weight="720">購入方法</text><rect x="22" y="268" width="326" height="64" rx="14" fill="#F7F8FC" class="stroke"/><circle cx="44" cy="300" r="8" fill="#665AE8"/><text class="t" x="64" y="294" font-size="13" font-weight="700">通常利用</text><text class="t muted" x="64" y="315" font-size="11">利用のみ・再販売不可</text><rect x="22" y="342" width="326" height="72" rx="14" fill="#F0EEFF" stroke="#8D82EF"/><circle cx="44" cy="378" r="8" fill="#665AE8"/><text class="t" x="64" y="370" font-size="13" font-weight="700">派生販売権付き</text><text class="t muted" x="64" y="392" font-size="11">+ ¥10,000・派生商品1件</text><rect x="22" y="434" width="326" height="50" rx="15" fill="#665AE8"/><text class="tw" x="130" y="465" font-size="14" font-weight="740">購入へ進む</text><text class="t muted" x="98" y="514" font-size="11">継承条件と利用範囲を確認</text></g>
    <text class="t h2" x="264" y="510">この系列の派生</text><rect x="264" y="534" width="480" height="102" rx="18" fill="#fff" class="stroke"/><circle cx="310" cy="585" r="28" fill="#FFE8AE"/><text class="t" x="354" y="568" font-size="14" font-weight="720">剣士素体</text><path d="M380 584h46" stroke="#B7BBC7" stroke-width="2"/><circle cx="452" cy="585" r="24" fill="#E8E3FF"/><text class="t small" x="488" y="580">重装剣士</text><text class="t muted" x="488" y="600" font-size="10">鎧・防御モーション追加</text><path d="M604 584h38" stroke="#B7BBC7" stroke-width="2"/><circle cx="670" cy="585" r="24" fill="#FFE4EB"/>
    <rect x="264" y="654" width="886" height="70" rx="18" fill="#191D2A"/><text class="tw" x="290" y="683" font-size="13" font-weight="700">継承される条件</text><text class="tw" x="290" y="706" font-size="11" opacity=".68">商用可 · ゲーム利用必須 · クレジット任意 · 派生販売可 · 禁止用途を全世代へ継承</text>
  </g>

  <!-- DESKTOP MY PAGE -->
  <text class="screenlabel" x="3852" y="135">04 / MY PAGE — DESKTOP</text>
  <g transform="translate(3852 160)" filter="url(#shadow)">
    <rect class="frame" width="1200" height="760" rx="18"/><rect class="side" width="220" height="760" rx="18"/><rect class="side" x="202" width="18" height="760"/>
    <rect x="24" y="24" width="38" height="38" rx="11" fill="url(#hero)"/><text class="tw" x="74" y="49" font-size="20" font-weight="780">PiXiEED</text><g class="tw nav"><text x="52" y="120" opacity=".7">ホーム</text><text x="52" y="172" opacity=".7">マーケット</text><text x="52" y="224" opacity=".7">QR</text><text x="52" y="276" opacity=".7">PiXiEEDraw</text><text x="52" y="328" opacity=".7">カメラ</text><rect x="16" y="630" width="188" height="54" rx="14" fill="#2C3040"/><circle cx="42" cy="657" r="18" fill="#FFB8CB"/><text x="72" y="662">マイページ</text></g>
    <text class="t h1" x="264" y="64">マイページ</text><rect x="1010" y="26" width="140" height="44" rx="14" fill="#fff" class="stroke"/><text class="t" x="1040" y="54" font-size="13" font-weight="700">プロフィール編集</text>
    <rect x="264" y="94" width="886" height="152" rx="22" fill="#191D2A"/><circle cx="326" cy="170" r="42" fill="#FFB8CB"/><text class="tw" x="388" y="151" font-size="23" font-weight="760">Reine</text><text class="tw" x="388" y="178" font-size="13" opacity=".62">@pixieed_creator</text><rect x="388" y="194" width="90" height="26" rx="13" fill="#353A4A"/><text class="tw" x="408" y="212" font-size="10">販売者確認中</text><text class="tw" x="812" y="142" font-size="12" opacity=".58">利用可能残高</text><text class="tw" x="812" y="180" font-size="27" font-weight="780">¥128,540</text><text class="tw" x="812" y="207" font-size="11" opacity=".6">次回出金可能日 8/1</text>
    <g transform="translate(264 272)"><rect class="panel stroke" width="208" height="92" rx="18"/><text class="t muted small" x="18" y="28">端末内作品</text><text class="t" x="18" y="65" font-size="26" font-weight="760">14</text></g><g transform="translate(486 272)"><rect class="panel stroke" width="208" height="92" rx="18"/><text class="t muted small" x="18" y="28">出品中</text><text class="t" x="18" y="65" font-size="26" font-weight="760">6</text></g><g transform="translate(708 272)"><rect class="panel stroke" width="208" height="92" rx="18"/><text class="t muted small" x="18" y="28">購入済み</text><text class="t" x="18" y="65" font-size="26" font-weight="760">11</text></g><g transform="translate(930 272)"><rect class="panel stroke" width="220" height="92" rx="18"/><text class="t muted small" x="18" y="28">継承ロイヤリティー</text><text class="t" x="18" y="65" font-size="26" font-weight="760">¥18,320</text></g>
    <g class="t body"><rect x="264" y="394" width="86" height="36" rx="18" fill="#29243E"/><text class="tw" x="286" y="417" font-size="12">作品</text><text x="382" y="417" font-size="12">購入</text><text x="466" y="417" font-size="12">売上</text><text x="548" y="417" font-size="12">設定</text></g>
    <rect x="264" y="450" width="886" height="96" rx="18" fill="#fff" class="stroke"/><rect x="278" y="464" width="68" height="68" rx="12" fill="#282D47"/><text class="t" x="364" y="484" font-size="14" font-weight="720">魔王さま歩行アニメ</text><text class="t muted small" x="364" y="507">端末内 · 2分前に保存</text><rect x="996" y="478" width="126" height="40" rx="13" fill="#F0EEFF"/><text class="t" x="1027" y="503" font-size="12" font-weight="700">編集を続ける</text>
    <rect x="264" y="560" width="886" height="96" rx="18" fill="#fff" class="stroke"/><rect x="278" y="574" width="68" height="68" rx="12" fill="#DFF8EF"/><text class="t" x="364" y="594" font-size="14" font-weight="720">草原タイルセット</text><text class="t muted small" x="364" y="617">販売中 · 派生3件 · 売上 ¥42,800</text><rect x="996" y="588" width="126" height="40" rx="13" fill="#F7F8FC" class="stroke"/><text class="t" x="1029" y="613" font-size="12" font-weight="700">商品を管理</text>
  </g>

  <!-- MOBILE LABELS -->
  <text class="screenlabel" x="72" y="1010">05 / HOME — MOBILE</text>
  <text class="screenlabel" x="498" y="1010">06 / MARKET — MOBILE</text>
  <text class="screenlabel" x="924" y="1010">07 / PRODUCT — MOBILE</text>
  <text class="screenlabel" x="1350" y="1010">08 / MY PAGE — MOBILE</text>
  <text class="screenlabel" x="1776" y="1010">09 / QR — MOBILE SHELL</text>
  <text class="screenlabel" x="2202" y="1010">10 / DRAW — MOBILE SHELL</text>
  <text class="screenlabel" x="2628" y="1010">11 / CAMERA — MOBILE SHELL</text>

  <!-- MOBILE HOME -->
  <g transform="translate(72 1034)" filter="url(#shadow)"><rect class="frame" width="360" height="780" rx="30"/><text class="t" x="22" y="42" font-size="20" font-weight="780">PiXiEED</text><circle cx="326" cy="34" r="17" fill="#FFB8CB"/><text class="t h1" x="22" y="92">おかえりなさい</text><rect x="18" y="116" width="324" height="188" rx="24" fill="url(#hero)"/><text class="tw label" x="40" y="148" opacity=".76">CONTINUE</text><text class="tw" x="40" y="180" font-size="20" font-weight="740">魔王さま歩行アニメ</text><text class="tw" x="40" y="204" font-size="11" opacity=".75">32×32 px · 8 frames</text><rect x="40" y="236" width="134" height="42" rx="13" fill="#fff"/><text class="t" x="67" y="262" font-size="12" font-weight="720">制作を続ける</text><g fill="#FFD070" transform="translate(242 198)"><rect width="38" height="52"/><rect x="-10" y="12" width="10" height="28"/><rect x="38" y="12" width="10" height="28"/></g><text class="t h2" x="22" y="346">すぐに始める</text><g transform="translate(18 364)"><rect class="panel stroke" width="100" height="96" rx="18"/><circle cx="28" cy="28" r="14" fill="#ECE9FF"/><text class="t small" x="14" y="63" font-weight="720">描く</text><text class="t muted" x="14" y="81" font-size="9">PiXiEEDraw</text></g><g transform="translate(130 364)"><rect class="panel stroke" width="100" height="96" rx="18"/><circle cx="28" cy="28" r="14" fill="#E6FAF7"/><text class="t small" x="14" y="63" font-weight="720">撮る</text><text class="t muted" x="14" y="81" font-size="9">カメラ</text></g><g transform="translate(242 364)"><rect class="panel stroke" width="100" height="96" rx="18"/><circle cx="28" cy="28" r="14" fill="#FFF0F4"/><text class="t small" x="14" y="63" font-weight="720">QR</text><text class="t muted" x="14" y="81" font-size="9">作成・読取</text></g><text class="t h2" x="22" y="510">注目の素材</text><rect x="18" y="530" width="324" height="112" rx="18" fill="#fff" class="stroke"/><rect x="30" y="542" width="88" height="88" rx="13" fill="#272C46"/><text class="t" x="134" y="565" font-size="14" font-weight="720">剣士キャラクター</text><text class="t muted small" x="134" y="589">大元1・派生12</text><text class="t" x="134" y="620" font-size="14" font-weight="760">¥50,000〜</text><g transform="translate(0 704)"><rect width="360" height="76" rx="0 0 30 30" fill="#fff"/><line class="line" y1="0" x2="360"/><g class="t" font-size="9" text-anchor="middle"><text x="36" y="50" fill="#665AE8">ホーム</text><text x="108" y="50">QR</text><circle cx="180" cy="24" r="25" fill="#665AE8"/><text class="tw" x="180" y="51">描く</text><text x="252" y="50">カメラ</text><text x="324" y="50">マイページ</text></g></g></g>

  <!-- MOBILE MARKET -->
  <g transform="translate(498 1034)" filter="url(#shadow)"><rect class="frame" width="360" height="780" rx="30"/><text class="t" x="22" y="42" font-size="22" font-weight="760">マーケット</text><rect x="18" y="64" width="324" height="42" rx="14" fill="#fff" class="stroke"/><text class="t muted small" x="48" y="90">素材・作者・用途で検索</text><circle cx="32" cy="84" r="6" fill="none" stroke="#747B8D"/><rect x="18" y="124" width="324" height="104" rx="20" fill="#191D2A"/><text class="tw label" x="38" y="153" opacity=".65">INHERIT &amp; CREATE</text><text class="tw" x="38" y="182" font-size="18" font-weight="730">受け継いで、育てる。</text><text class="tw" x="38" y="205" font-size="10" opacity=".68">歴代作者へ収益をつなぐ素材市場</text><rect x="18" y="246" width="64" height="32" rx="16" fill="#29243E"/><text class="tw small" x="37" y="267">すべて</text><text class="t small" x="104" y="267">キャラ</text><text class="t small" x="168" y="267">背景</text><text class="t small" x="222" y="267">UI</text><text class="t h2" x="18" y="320">おすすめ</text><g transform="translate(18 340)"><rect class="panel stroke" width="154" height="264" rx="18"/><rect x="10" y="10" width="134" height="128" rx="14" fill="#272C46"/><g fill="#F5C66D" transform="translate(51 38)"><rect width="34" height="54"/><rect x="-8" y="12" width="8" height="30"/><rect x="34" y="12" width="8" height="30"/></g><rect x="12" y="150" width="58" height="20" rx="10" fill="#FFF0F4"/><text class="t" x="22" y="164" font-size="9">派生12件</text><text class="t" x="12" y="194" font-size="13" font-weight="720">剣士キャラ</text><text class="t muted" x="12" y="216" font-size="9">ゲーム・動画</text><text class="t" x="12" y="245" font-size="13" font-weight="760">¥50,000〜</text></g><g transform="translate(188 340)"><rect class="panel stroke" width="154" height="264" rx="18"/><rect x="10" y="10" width="134" height="128" rx="14" fill="#DFF8EF"/><path d="M10 106l35-30 26 18 32-44 41 56v32H10z" fill="#6ACB9B"/><rect x="12" y="150" width="52" height="20" rx="10" fill="#E8FBF8"/><text class="t" x="22" y="164" font-size="9">派生7件</text><text class="t" x="12" y="194" font-size="13" font-weight="720">草原タイル</text><text class="t muted" x="12" y="216" font-size="9">RPG・マップ</text><text class="t" x="12" y="245" font-size="13" font-weight="760">¥3,800〜</text></g><rect x="246" y="630" width="96" height="44" rx="14" fill="#665AE8"/><text class="tw" x="269" y="657" font-size="12" font-weight="720">素材を出品</text><g transform="translate(0 704)"><rect width="360" height="76" fill="#fff"/><line class="line" x2="360"/><g class="t" font-size="9" text-anchor="middle"><text x="36" y="50">ホーム</text><text x="108" y="50">QR</text><circle cx="180" cy="24" r="25" fill="#665AE8"/><text class="tw" x="180" y="51">描く</text><text x="252" y="50">カメラ</text><text x="324" y="50">マイページ</text></g></g></g>

  <!-- MOBILE PRODUCT -->
  <g transform="translate(924 1034)" filter="url(#shadow)"><rect class="frame" width="360" height="780" rx="30"/><text class="t" x="22" y="42" font-size="13">← 素材詳細</text><rect x="18" y="64" width="324" height="240" rx="22" fill="#252A43"/><g fill="#F2C568" transform="translate(132 105)"><rect width="92" height="112"/><rect x="-20" y="24" width="20" height="66"/><rect x="92" y="24" width="20" height="66"/><rect x="8" y="112" width="28" height="50"/><rect x="56" y="112" width="28" height="50"/></g><rect x="30" y="274" width="84" height="22" rx="11" fill="#fff"/><text class="t" x="46" y="289" font-size="9">プレビュー 8枚</text><rect x="18" y="322" width="82" height="24" rx="12" fill="#FFF0F4"/><text class="t" x="34" y="339" font-size="10" font-weight="700">一次素材</text><text class="t" x="18" y="378" font-size="23" font-weight="760">剣士キャラクター</text><text class="t muted small" x="18" y="402">by PixelForge</text><text class="t" x="18" y="448" font-size="27" font-weight="780">¥50,000</text><rect x="18" y="474" width="324" height="64" rx="15" fill="#F7F8FC" class="stroke"/><circle cx="42" cy="506" r="7" fill="#A8ADBA"/><text class="t" x="60" y="500" font-size="12" font-weight="700">通常利用</text><text class="t muted" x="60" y="520" font-size="10">利用のみ・再販売不可</text><rect x="18" y="548" width="324" height="70" rx="15" fill="#F0EEFF" stroke="#8D82EF"/><circle cx="42" cy="583" r="7" fill="#665AE8"/><text class="t" x="60" y="575" font-size="12" font-weight="700">派生販売権付き</text><text class="t muted" x="60" y="596" font-size="10">+ ¥10,000・派生商品1件</text><rect x="18" y="638" width="324" height="48" rx="15" fill="#665AE8"/><text class="tw" x="132" y="668" font-size="13" font-weight="740">購入へ進む</text><g transform="translate(0 704)"><rect width="360" height="76" fill="#fff"/><line class="line" x2="360"/><g class="t" font-size="9" text-anchor="middle"><text x="36" y="50">ホーム</text><text x="108" y="50">QR</text><circle cx="180" cy="24" r="25" fill="#665AE8"/><text class="tw" x="180" y="51">描く</text><text x="252" y="50">カメラ</text><text x="324" y="50">マイページ</text></g></g></g>

  <!-- MOBILE ACCOUNT -->
  <g transform="translate(1350 1034)" filter="url(#shadow)"><rect class="frame" width="360" height="780" rx="30"/><text class="t" x="22" y="42" font-size="22" font-weight="760">マイページ</text><rect x="18" y="66" width="324" height="150" rx="22" fill="#191D2A"/><circle cx="60" cy="116" r="28" fill="#FFB8CB"/><text class="tw" x="102" y="106" font-size="18" font-weight="740">Reine</text><text class="tw" x="102" y="128" font-size="10" opacity=".6">@pixieed_creator</text><text class="tw" x="38" y="170" font-size="10" opacity=".58">利用可能残高</text><text class="tw" x="38" y="198" font-size="22" font-weight="770">¥128,540</text><rect x="224" y="168" width="96" height="32" rx="12" fill="#353A4A"/><text class="tw" x="248" y="189" font-size="10">売上を見る</text><g transform="translate(18 234)"><rect class="panel stroke" width="100" height="72" rx="15"/><text class="t muted" x="12" y="24" font-size="9">作品</text><text class="t" x="12" y="54" font-size="21" font-weight="760">14</text></g><g transform="translate(130 234)"><rect class="panel stroke" width="100" height="72" rx="15"/><text class="t muted" x="12" y="24" font-size="9">出品中</text><text class="t" x="12" y="54" font-size="21" font-weight="760">6</text></g><g transform="translate(242 234)"><rect class="panel stroke" width="100" height="72" rx="15"/><text class="t muted" x="12" y="24" font-size="9">購入済み</text><text class="t" x="12" y="54" font-size="21" font-weight="760">11</text></g><g class="t small"><rect x="18" y="328" width="62" height="32" rx="16" fill="#29243E"/><text class="tw" x="37" y="349">作品</text><text x="105" y="349">購入</text><text x="166" y="349">売上</text><text x="227" y="349">設定</text></g><rect x="18" y="380" width="324" height="94" rx="17" fill="#fff" class="stroke"/><rect x="30" y="392" width="70" height="70" rx="12" fill="#282D47"/><text class="t" x="116" y="412" font-size="13" font-weight="720">魔王さま歩行</text><text class="t muted" x="116" y="433" font-size="9">端末内 · 2分前</text><text class="t" x="116" y="456" font-size="10" font-weight="700">編集を続ける →</text><rect x="18" y="488" width="324" height="94" rx="17" fill="#fff" class="stroke"/><rect x="30" y="500" width="70" height="70" rx="12" fill="#DFF8EF"/><text class="t" x="116" y="520" font-size="13" font-weight="720">草原タイル</text><text class="t muted" x="116" y="541" font-size="9">販売中 · 派生3件</text><text class="t" x="116" y="564" font-size="10" font-weight="700">商品を管理 →</text><g transform="translate(0 704)"><rect width="360" height="76" fill="#fff"/><line class="line" x2="360"/><g class="t" font-size="9" text-anchor="middle"><text x="36" y="50">ホーム</text><text x="108" y="50">QR</text><circle cx="180" cy="24" r="25" fill="#665AE8"/><text class="tw" x="180" y="51">描く</text><text x="252" y="50">カメラ</text><text x="324" y="50" fill="#665AE8">マイページ</text></g></g></g>

  <!-- MOBILE QR SHELL -->
  <g transform="translate(1776 1034)" filter="url(#shadow)"><rect class="frame" width="360" height="780" rx="30"/><text class="t" x="22" y="42" font-size="22" font-weight="760">QR</text><rect x="18" y="64" width="324" height="42" rx="14" fill="#ECEEF5"/><rect x="20" y="66" width="158" height="38" rx="12" fill="#fff"/><text class="t small" x="70" y="90" font-weight="700">QRを作る</text><text class="t small" x="236" y="90">保存済み</text><text class="t muted small" x="18" y="144">内容</text><rect x="18" y="156" width="324" height="54" rx="14" fill="#fff" class="stroke"/><text class="t muted small" x="34" y="188">URLまたはテキストを入力</text><rect x="18" y="228" width="324" height="280" rx="22" fill="#fff" class="stroke"/><g transform="translate(84 272)" fill="#191D2A"><rect width="64" height="64"/><rect x="128" width="64" height="64"/><rect y="128" width="64" height="64"/><rect x="80" y="80" width="26" height="26"/><rect x="116" y="92" width="18" height="60"/><rect x="152" y="116" width="40" height="18"/></g><rect x="18" y="530" width="156" height="48" rx="15" fill="#665AE8"/><text class="tw" x="63" y="560" font-size="12" font-weight="720">保存する</text><rect x="186" y="530" width="156" height="48" rx="15" fill="#fff" class="stroke"/><text class="t" x="233" y="560" font-size="12" font-weight="720">共有する</text><g transform="translate(0 704)"><rect width="360" height="76" fill="#fff"/><line class="line" x2="360"/><g class="t" font-size="9" text-anchor="middle"><text x="36" y="50">ホーム</text><text x="108" y="50" fill="#665AE8">QR</text><circle cx="180" cy="24" r="25" fill="#665AE8"/><text class="tw" x="180" y="51">描く</text><text x="252" y="50">カメラ</text><text x="324" y="50">マイページ</text></g></g></g>

  <!-- MOBILE DRAW SHELL -->
  <g transform="translate(2202 1034)" filter="url(#shadow)"><rect width="360" height="780" rx="30" fill="#20232D" stroke="#252A38" stroke-width="2"/><rect x="0" y="0" width="360" height="56" rx="30" fill="#171A22"/><rect x="0" y="30" width="360" height="26" fill="#171A22"/><text class="tw" x="18" y="35" font-size="13" font-weight="720">魔王さま歩行</text><text class="tw" x="292" y="35" font-size="11" opacity=".7">保存</text><rect x="12" y="68" width="44" height="526" rx="14" fill="#171A22"/><g fill="#555C70"><circle cx="34" cy="96" r="12"/><rect x="22" y="130" width="24" height="24" rx="6"/><rect x="22" y="170" width="24" height="24" rx="6"/><rect x="22" y="210" width="24" height="24" rx="6"/><rect x="22" y="250" width="24" height="24" rx="6"/></g><rect x="68" y="68" width="280" height="394" rx="16" fill="#303544"/><rect x="98" y="104" width="220" height="220" fill="#fff"/><path d="M98 126h220M98 148h220M98 170h220M98 192h220M98 214h220M98 236h220M98 258h220M98 280h220M120 104v220M142 104v220M164 104v220M186 104v220M208 104v220M230 104v220M252 104v220M274 104v220M296 104v220" stroke="#E8EAF0" stroke-width="1"/><g fill="#7067F0"><rect x="186" y="148" width="44" height="44"/><rect x="164" y="170" width="22" height="44"/><rect x="230" y="170" width="22" height="44"/><rect x="186" y="192" width="22" height="44"/><rect x="208" y="192" width="22" height="44"/></g><rect x="68" y="476" width="280" height="118" rx="16" fill="#171A22"/><text class="tw" x="84" y="504" font-size="11" opacity=".65">カラー</text><g><circle cx="94" cy="538" r="14" fill="#7067F0"/><circle cx="130" cy="538" r="14" fill="#FF7A9E"/><circle cx="166" cy="538" r="14" fill="#46D7C6"/><circle cx="202" cy="538" r="14" fill="#FFD070"/><circle cx="238" cy="538" r="14" fill="#fff"/></g><rect x="12" y="610" width="336" height="78" rx="16" fill="#171A22"/><text class="tw" x="28" y="638" font-size="11" opacity=".65">タイムライン</text><g fill="#444A5B"><rect x="28" y="650" width="42" height="28" rx="5"/><rect x="78" y="650" width="42" height="28" rx="5"/><rect x="128" y="650" width="42" height="28" rx="5"/><rect x="178" y="650" width="42" height="28" rx="5"/></g><g transform="translate(0 704)"><rect width="360" height="76" fill="#171A22"/><line y1="0" x2="360" stroke="#303443"/><g class="tw" font-size="9" text-anchor="middle"><text x="36" y="50" opacity=".65">ホーム</text><text x="108" y="50" opacity=".65">QR</text><circle cx="180" cy="24" r="25" fill="#665AE8"/><text x="180" y="51">描く</text><text x="252" y="50" opacity=".65">カメラ</text><text x="324" y="50" opacity=".65">マイページ</text></g></g></g>

  <!-- MOBILE CAMERA SHELL -->
  <g transform="translate(2628 1034)" filter="url(#shadow)"><rect width="360" height="780" rx="30" fill="#080A0F" stroke="#252A38" stroke-width="2"/><rect x="16" y="18" width="42" height="42" rx="14" fill="#11151E"/><text class="tw" x="31" y="45" font-size="18">×</text><rect x="302" y="18" width="42" height="42" rx="14" fill="#11151E"/><circle cx="323" cy="39" r="9" fill="none" stroke="#fff"/><rect x="18" y="76" width="324" height="470" rx="24" fill="url(#mint)"/><circle cx="180" cy="270" r="100" fill="#CAEDE7" opacity=".48"/><g fill="#272C46"><rect x="144" y="220" width="72" height="96"/><rect x="128" y="240" width="16" height="52"/><rect x="216" y="240" width="16" height="52"/></g><rect x="28" y="568" width="78" height="40" rx="20" fill="#171B24"/><text class="tw" x="51" y="593" font-size="11">32 PX</text><rect x="126" y="558" width="108" height="56" rx="28" fill="#fff"/><circle cx="180" cy="586" r="21" fill="#665AE8"/><rect x="254" y="568" width="78" height="40" rx="20" fill="#171B24"/><text class="tw" x="274" y="593" font-size="11">読込</text><text class="tw" x="116" y="644" font-size="11" opacity=".65">短辺を32PXでドット化</text><g transform="translate(0 704)"><rect width="360" height="76" fill="#11141B"/><line y1="0" x2="360" stroke="#303443"/><g class="tw" font-size="9" text-anchor="middle"><text x="36" y="50" opacity=".65">ホーム</text><text x="108" y="50" opacity=".65">QR</text><circle cx="180" cy="24" r="25" fill="#665AE8"/><text x="180" y="51">描く</text><text x="252" y="50">カメラ</text><text x="324" y="50" opacity=".65">マイページ</text></g></g></g>

  <!-- NOTES -->
  <g transform="translate(3070 1034)"><text class="screenlabel" x="0" y="0">DESIGN SYSTEM NOTES</text><rect x="0" y="24" width="1980" height="620" rx="28" fill="#171A24" stroke="#2D3240"/><text class="tw" x="40" y="76" font-size="24" font-weight="750">One app, specialized workspaces.</text><text class="tw" x="40" y="110" font-size="14" opacity=".62">共通の発見・所有・販売体験。制作ツールは集中できる専用ワークスペース。</text><text class="tw label" x="40" y="164" opacity=".55">FOUNDATION</text><g transform="translate(40 190)"><rect width="96" height="76" rx="14" fill="#665AE8"/><text class="tw" x="14" y="44" font-size="12">Primary</text><rect x="110" width="96" height="76" rx="14" fill="#FF7A9E"/><text class="tw" x="126" y="44" font-size="12">Accent</text><rect x="220" width="96" height="76" rx="14" fill="#46D7C6"/><text class="tw" x="237" y="44" font-size="12">Success</text><rect x="330" width="96" height="76" rx="14" fill="#F5F6FA"/><text class="t" x="350" y="44" font-size="12">Canvas</text><rect x="440" width="96" height="76" rx="14" fill="#191D2A"/><text class="tw" x="460" y="44" font-size="12">Ink</text></g><text class="tw label" x="40" y="322" opacity=".55">NAVIGATION</text><text class="tw" x="40" y="354" font-size="14">Desktop: 左サイドバー固定 · Mobile: 下部5タブ · Drawを中央主操作</text><text class="tw" x="40" y="382" font-size="14">マーケットはホーム内の発見導線＋独立画面。既存URLは維持。</text><text class="tw label" x="40" y="438" opacity=".55">LAYOUT RULES</text><text class="tw" x="40" y="470" font-size="14">8pt spacing · 14–24px radius · 44px以上のタップ領域 · 情報密度はPC/スマホ別に調整</text><text class="tw" x="40" y="498" font-size="14">販売系列は「大元・派生数・最低価格」を一覧で明示。詳細で派生ツリーと継承条件を表示。</text><text class="tw label" x="40" y="554" opacity=".55">ROUTES PRESERVED</text><text class="tw" x="40" y="586" font-size="14">/ · /qr/ · /pixiedraw/ · /pixiee-lens/ · /account/ · 新設 /market/</text></g>
</svg>
