<?xml version="1.0" encoding="UTF-8" ?>
<svg version="1.1" width="24" height="24" xmlns="http://www.w3.org/2000/svg" shape-rendering="crispEdges">
<rect x="7" y="0" width="10" height="1" fill="#FFFFFF" />
<rect x="6" y="1" width="1" height="1" fill="#FFFFFF" />
<rect x="17" y="1" width="1" height="1" fill="#FFFFFF" />
<rect x="5" y="2" width="1" height="1" fill="#FFFFFF" />
<rect x="7" y="2" width="10" height="20" fill="#FFFFFF" />
<rect x="18" y="2" width="1" height="1" fill="#FFFFFF" />
<rect x="4" y="3" width="1" height="1" fill="#FFFFFF" />
<rect x="6" y="3" width="1" height="18" fill="#FFFFFF" />
<rect x="17" y="3" width="1" height="18" fill="#FFFFFF" />
<rect x="19" y="3" width="1" height="1" fill="#FFFFFF" />
<rect x="3" y="4" width="1" height="1" fill="#FFFFFF" />
<rect x="5" y="4" width="1" height="16" fill="#FFFFFF" />
<rect x="18" y="4" width="1" height="16" fill="#FFFFFF" />
<rect x="20" y="4" width="1" height="1" fill="#FFFFFF" />
<rect x="2" y="5" width="1" height="1" fill="#FFFFFF" />
<rect x="4" y="5" width="1" height="14" fill="#FFFFFF" />
<rect x="19" y="5" width="1" height="14" fill="#FFFFFF" />
<rect x="21" y="5" width="1" height="1" fill="#FFFFFF" />
<rect x="1" y="6" width="1" height="1" fill="#FFFFFF" />
<rect x="3" y="6" width="1" height="12" fill="#FFFFFF" />
<rect x="20" y="6" width="1" height="12" fill="#FFFFFF" />
<rect x="22" y="6" width="1" height="1" fill="#FFFFFF" />
<rect x="0" y="7" width="1" height="10" fill="#FFFFFF" />
<rect x="2" y="7" width="1" height="10" fill="#FFFFFF" />
<rect x="21" y="7" width="1" height="10" fill="#FFFFFF" />
<rect x="23" y="7" width="1" height="10" fill="#FFFFFF" />
<rect x="1" y="17" width="1" height="1" fill="#FFFFFF" />
<rect x="22" y="17" width="1" height="1" fill="#FFFFFF" />
<rect x="2" y="18" width="1" height="1" fill="#FFFFFF" />
<rect x="21" y="18" width="1" height="1" fill="#FFFFFF" />
<rect x="3" y="19" width="1" height="1" fill="#FFFFFF" />
<rect x="20" y="19" width="1" height="1" fill="#FFFFFF" />
<rect x="4" y="20" width="1" height="1" fill="#FFFFFF" />
<rect x="19" y="20" width="1" height="1" fill="#FFFFFF" />
<rect x="5" y="21" width="1" height="1" fill="#FFFFFF" />
<rect x="18" y="21" width="1" height="1" fill="#FFFFFF" />
<rect x="6" y="22" width="1" height="1" fill="#FFFFFF" />
<rect x="17" y="22" width="1" height="1" fill="#FFFFFF" />
<rect x="7" y="23" width="10" height="1" fill="#FFFFFF" />
</svg>