<?xml version="1.0" encoding="UTF-8" ?>
<svg version="1.1" width="24" height="24" xmlns="http://www.w3.org/2000/svg" shape-rendering="crispEdges">
<rect x="1" y="0" width="22" height="2" fill="#FFFFFF" />
<rect x="0" y="1" width="1" height="22" fill="#FFFFFF" />
<rect x="23" y="1" width="1" height="22" fill="#FFFFFF" />
<rect x="1" y="2" width="2" height="1" fill="#FFFFFF" />
<rect x="21" y="2" width="2" height="1" fill="#FFFFFF" />
<rect x="1" y="3" width="1" height="21" fill="#FFFFFF" />
<rect x="12" y="3" width="8" height="2" fill="#FFFFFF" />
<rect x="22" y="3" width="1" height="21" fill="#FFFFFF" />
<rect x="20" y="4" width="1" height="8" fill="#FFFFFF" />
<rect x="18" y="5" width="2" height="1" fill="#FFFFFF" />
<rect x="19" y="6" width="1" height="6" fill="#FFFFFF" />
<rect x="3" y="12" width="2" height="8" fill="#FFFFFF" />
<rect x="5" y="18" width="1" height="3" fill="#FFFFFF" />
<rect x="6" y="19" width="6" height="2" fill="#FFFFFF" />
<rect x="4" y="20" width="1" height="1" fill="#FFFFFF" />
<rect x="2" y="21" width="1" height="3" fill="#FFFFFF" />
<rect x="21" y="21" width="1" height="3" fill="#FFFFFF" />
<rect x="3" y="22" width="18" height="2" fill="#FFFFFF" />
</svg>