<svg width="24" height="24" viewBox="0 0 24 24" xmlns="http://www.w3.org/2000/svg" shape-rendering="crispEdges" aria-hidden="true">
  <rect x="3" y="2" width="18" height="2" fill="#FFFFFF"></rect>
  <rect x="2" y="3" width="2" height="2" fill="#FFFFFF"></rect>
  <rect x="20" y="3" width="2" height="2" fill="#FFFFFF"></rect>
  <rect x="2" y="5" width="1" height="8" fill="#FFFFFF"></rect>
  <rect x="21" y="5" width="1" height="8" fill="#FFFFFF"></rect>
  <rect x="3" y="13" width="18" height="1" fill="#FFFFFF"></rect>
  <rect x="4" y="14" width="16" height="1" fill="#FFFFFF"></rect>
  <rect x="5" y="15" width="14" height="1" fill="#FFFFFF"></rect>
  <rect x="7" y="4" width="10" height="1" fill="#FFFFFF"></rect>
  <rect x="8" y="6" width="8" height="1" fill="#FFFFFF"></rect>
  <rect x="9" y="7" width="6" height="1" fill="#FFFFFF"></rect>
  <rect x="8" y="8" width="1" height="4" fill="#FFFFFF"></rect>
  <rect x="15" y="8" width="1" height="4" fill="#FFFFFF"></rect>
  <rect x="9" y="9" width="1" height="2" fill="#FFFFFF"></rect>
  <rect x="14" y="9" width="1" height="2" fill="#FFFFFF"></rect>
  <rect x="10" y="10" width="4" height="1" fill="#FFFFFF"></rect>
  <rect x="6" y="16" width="12" height="2" fill="#FFFFFF"></rect>
  <rect x="5" y="18" width="14" height="2" fill="#FFFFFF"></rect>
  <rect x="4" y="20" width="16" height="2" fill="#FFFFFF"></rect>
  <rect x="3" y="22" width="18" height="1" fill="#FFFFFF"></rect>
</svg>
