<?xml version="1.0" encoding="UTF-8" ?>
<svg version="1.1" width="24" height="24" xmlns="http://www.w3.org/2000/svg" shape-rendering="crispEdges">
<rect x="17" y="0" width="6" height="1" fill="#FFFFFF" />
<rect x="16" y="1" width="2" height="1" fill="#FFFFFF" />
<rect x="22" y="1" width="2" height="1" fill="#FFFFFF" />
<rect x="16" y="2" width="1" height="5" fill="#FFFFFF" />
<rect x="21" y="2" width="1" height="1" fill="#FFFFFF" />
<rect x="23" y="2" width="1" height="5" fill="#FFFFFF" />
<rect x="20" y="3" width="1" height="1" fill="#FFFFFF" />
<rect x="19" y="4" width="1" height="1" fill="#FFFFFF" />
<rect x="18" y="5" width="1" height="1" fill="#FFFFFF" />
<rect x="17" y="6" width="1" height="2" fill="#FFFFFF" />
<rect x="22" y="6" width="1" height="2" fill="#FFFFFF" />
<rect x="8" y="7" width="8" height="1" fill="#FFFFFF" />
<rect x="18" y="7" width="4" height="1" fill="#FFFFFF" />
<rect x="3" y="8" width="3" height="2" fill="#FFFFFF" />
<rect x="7" y="8" width="2" height="1" fill="#FFFFFF" />
<rect x="15" y="8" width="2" height="1" fill="#FFFFFF" />
<rect x="1" y="9" width="2" height="1" fill="#FFFFFF" />
<rect x="6" y="9" width="2" height="1" fill="#FFFFFF" />
<rect x="10" y="9" width="4" height="1" fill="#FFFFFF" />
<rect x="16" y="9" width="7" height="1" fill="#FFFFFF" />
<rect x="0" y="10" width="2" height="1" fill="#FFFFFF" />
<rect x="22" y="10" width="2" height="1" fill="#FFFFFF" />
<rect x="0" y="11" width="1" height="12" fill="#FFFFFF" />
<rect x="23" y="11" width="1" height="12" fill="#FFFFFF" />
<rect x="9" y="12" width="6" height="1" fill="#FFFFFF" />
<rect x="8" y="13" width="1" height="1" fill="#FFFFFF" />
<rect x="15" y="13" width="1" height="1" fill="#FFFFFF" />
<rect x="7" y="14" width="1" height="6" fill="#FFFFFF" />
<rect x="16" y="14" width="1" height="6" fill="#FFFFFF" />
<rect x="8" y="20" width="1" height="1" fill="#FFFFFF" />
<rect x="15" y="20" width="1" height="1" fill="#FFFFFF" />
<rect x="9" y="21" width="6" height="1" fill="#FFFFFF" />
<rect x="1" y="22" width="1" height="2" fill="#FFFFFF" />
<rect x="22" y="22" width="1" height="2" fill="#FFFFFF" />
<rect x="2" y="23" width="20" height="1" fill="#FFFFFF" />
</svg>