<?xml version="1.0" encoding="UTF-8" ?>
<svg version="1.1" width="21" height="21" xmlns="http://www.w3.org/2000/svg" shape-rendering="crispEdges">
<rect x="8" y="1" width="5" height="1" fill="#FFFFFF" />
<rect x="2" y="2" width="4" height="1" fill="#FFFFFF" />
<rect x="8" y="2" width="1" height="3" fill="#FFFFFF" />
<rect x="12" y="2" width="1" height="3" fill="#FFFFFF" />
<rect x="15" y="2" width="4" height="1" fill="#FFFFFF" />
<rect x="2" y="3" width="1" height="3" fill="#FFFFFF" />
<rect x="6" y="3" width="1" height="1" fill="#FFFFFF" />
<rect x="14" y="3" width="1" height="1" fill="#FFFFFF" />
<rect x="18" y="3" width="1" height="3" fill="#FFFFFF" />
<rect x="7" y="4" width="1" height="1" fill="#FFFFFF" />
<rect x="13" y="4" width="1" height="1" fill="#FFFFFF" />
<rect x="3" y="6" width="1" height="1" fill="#FFFFFF" />
<rect x="17" y="6" width="1" height="1" fill="#FFFFFF" />
<rect x="4" y="7" width="1" height="2" fill="#FFFFFF" />
<rect x="9" y="7" width="3" height="1" fill="#FFFFFF" />
<rect x="16" y="7" width="1" height="2" fill="#FFFFFF" />
<rect x="1" y="8" width="3" height="1" fill="#FFFFFF" />
<rect x="8" y="8" width="1" height="1" fill="#FFFFFF" />
<rect x="12" y="8" width="1" height="1" fill="#FFFFFF" />
<rect x="17" y="8" width="3" height="1" fill="#FFFFFF" />
<rect x="1" y="9" width="1" height="4" fill="#FFFFFF" />
<rect x="7" y="9" width="1" height="3" fill="#FFFFFF" />
<rect x="13" y="9" width="1" height="3" fill="#FFFFFF" />
<rect x="19" y="9" width="1" height="4" fill="#FFFFFF" />
<rect x="2" y="12" width="3" height="1" fill="#FFFFFF" />
<rect x="8" y="12" width="1" height="1" fill="#FFFFFF" />
<rect x="12" y="12" width="1" height="1" fill="#FFFFFF" />
<rect x="16" y="12" width="3" height="1" fill="#FFFFFF" />
<rect x="4" y="13" width="1" height="1" fill="#FFFFFF" />
<rect x="9" y="13" width="3" height="1" fill="#FFFFFF" />
<rect x="16" y="13" width="1" height="1" fill="#FFFFFF" />
<rect x="3" y="14" width="1" height="1" fill="#FFFFFF" />
<rect x="17" y="14" width="1" height="1" fill="#FFFFFF" />
<rect x="2" y="15" width="1" height="4" fill="#FFFFFF" />
<rect x="18" y="15" width="1" height="4" fill="#FFFFFF" />
<rect x="7" y="16" width="2" height="1" fill="#FFFFFF" />
<rect x="12" y="16" width="2" height="1" fill="#FFFFFF" />
<rect x="6" y="17" width="1" height="1" fill="#FFFFFF" />
<rect x="8" y="17" width="1" height="3" fill="#FFFFFF" />
<rect x="12" y="17" width="1" height="3" fill="#FFFFFF" />
<rect x="14" y="17" width="1" height="1" fill="#FFFFFF" />
<rect x="3" y="18" width="3" height="1" fill="#FFFFFF" />
<rect x="15" y="18" width="3" height="1" fill="#FFFFFF" />
<rect x="9" y="19" width="3" height="1" fill="#FFFFFF" />
</svg>