<?xml version="1.0" encoding="UTF-8" ?>
<svg version="1.1" width="21" height="21" xmlns="http://www.w3.org/2000/svg" shape-rendering="crispEdges">
<rect x="4" y="3" width="3" height="7" fill="#FFFFFF" />
<rect x="14" y="3" width="3" height="7" fill="#FFFFFF" />
<rect x="7" y="4" width="1" height="6" fill="#FFFFFF" />
<rect x="13" y="4" width="1" height="6" fill="#FFFFFF" />
<rect x="8" y="5" width="1" height="6" fill="#FFFFFF" />
<rect x="12" y="5" width="1" height="6" fill="#FFFFFF" />
<rect x="9" y="6" width="3" height="4" fill="#FFFFFF" />
<rect x="0" y="10" width="1" height="1" fill="#FFFFFF" />
<rect x="2" y="10" width="1" height="1" fill="#FFFFFF" />
<rect x="4" y="10" width="1" height="1" fill="#FFFFFF" />
<rect x="6" y="10" width="1" height="1" fill="#FFFFFF" />
<rect x="10" y="10" width="1" height="1" fill="#FFFFFF" />
<rect x="14" y="10" width="1" height="1" fill="#FFFFFF" />
<rect x="16" y="10" width="1" height="1" fill="#FFFFFF" />
<rect x="18" y="10" width="1" height="1" fill="#FFFFFF" />
<rect x="20" y="10" width="1" height="1" fill="#FFFFFF" />
<rect x="4" y="12" width="1" height="1" fill="#FFFFFF" />
<rect x="16" y="12" width="1" height="1" fill="#FFFFFF" />
<rect x="4" y="14" width="1" height="1" fill="#FFFFFF" />
<rect x="9" y="14" width="1" height="1" fill="#FFFFFF" />
<rect x="11" y="14" width="1" height="1" fill="#FFFFFF" />
<rect x="16" y="14" width="1" height="1" fill="#FFFFFF" />
<rect x="4" y="16" width="1" height="2" fill="#FFFFFF" />
<rect x="7" y="16" width="1" height="1" fill="#FFFFFF" />
<rect x="13" y="16" width="1" height="1" fill="#FFFFFF" />
<rect x="16" y="16" width="1" height="2" fill="#FFFFFF" />
<rect x="5" y="17" width="1" height="1" fill="#FFFFFF" />
<rect x="15" y="17" width="1" height="1" fill="#FFFFFF" />
</svg>