<?xml version="1.0" encoding="UTF-8" ?>
<svg version="1.1" width="16" height="16" xmlns="http://www.w3.org/2000/svg" shape-rendering="crispEdges">
<rect x="5" y="0" width="6" height="1" fill="#000000" />
<rect x="4" y="1" width="1" height="1" fill="#000000" />
<rect x="5" y="1" width="2" height="1" fill="#FFFFFF" />
<rect x="7" y="1" width="3" height="1" fill="#D0D3FF" />
<rect x="10" y="1" width="1" height="5" fill="#9097FC" />
<rect x="11" y="1" width="1" height="1" fill="#000000" />
<rect x="3" y="2" width="1" height="1" fill="#000000" />
<rect x="4" y="2" width="2" height="1" fill="#FFFFFF" />
<rect x="6" y="2" width="4" height="3" fill="#ABB0FE" />
<rect x="11" y="2" width="1" height="1" fill="#202EEF" />
<rect x="12" y="2" width="1" height="1" fill="#000000" />
<rect x="2" y="3" width="1" height="1" fill="#000000" />
<rect x="3" y="3" width="2" height="1" fill="#FFFFFF" />
<rect x="5" y="3" width="1" height="4" fill="#D0D3FF" />
<rect x="11" y="3" width="1" height="1" fill="#4450F6" />
<rect x="12" y="3" width="1" height="1" fill="#202EEF" />
<rect x="13" y="3" width="1" height="1" fill="#000000" />
<rect x="1" y="4" width="1" height="1" fill="#000000" />
<rect x="2" y="4" width="2" height="1" fill="#FFFFFF" />
<rect x="4" y="4" width="1" height="2" fill="#D0D3FF" />
<rect x="11" y="4" width="1" height="2" fill="#9097FC" />
<rect x="12" y="4" width="1" height="1" fill="#4450F6" />
<rect x="13" y="4" width="1" height="1" fill="#202EEF" />
<rect x="14" y="4" width="1" height="1" fill="#000000" />
<rect x="0" y="5" width="1" height="6" fill="#000000" />
<rect x="1" y="5" width="2" height="1" fill="#FFFFFF" />
<rect x="3" y="5" width="1" height="1" fill="#D0D3FF" />
<rect x="6" y="5" width="1" height="1" fill="#D0D3FF" />
<rect x="7" y="5" width="2" height="1" fill="#ABB0FE" />
<rect x="9" y="5" width="1" height="1" fill="#9097FC" />
<rect x="12" y="5" width="3" height="1" fill="#9097FC" />
<rect x="15" y="5" width="1" height="6" fill="#000000" />
<rect x="1" y="6" width="1" height="1" fill="#FFFFFF" />
<rect x="2" y="6" width="3" height="4" fill="#ABB0FE" />
<rect x="6" y="6" width="2" height="1" fill="#202EEF" />
<rect x="8" y="6" width="2" height="1" fill="#4450F6" />
<rect x="10" y="6" width="1" height="1" fill="#6973FA" />
<rect x="11" y="6" width="3" height="4" fill="#4450F6" />
<rect x="14" y="6" width="1" height="4" fill="#9097FC" />
<rect x="1" y="7" width="1" height="3" fill="#D0D3FF" />
<rect x="5" y="7" width="1" height="2" fill="#ABB0FE" />
<rect x="6" y="7" width="1" height="1" fill="#202EEF" />
<rect x="7" y="7" width="2" height="1" fill="#4450F6" />
<rect x="9" y="7" width="1" height="2" fill="#6973FA" />
<rect x="10" y="7" width="1" height="1" fill="#4450F6" />
<rect x="6" y="8" width="2" height="1" fill="#4450F6" />
<rect x="8" y="8" width="1" height="2" fill="#6973FA" />
<rect x="10" y="8" width="1" height="3" fill="#202EEF" />
<rect x="5" y="9" width="1" height="2" fill="#9097FC" />
<rect x="6" y="9" width="1" height="1" fill="#4450F6" />
<rect x="7" y="9" width="1" height="1" fill="#6973FA" />
<rect x="9" y="9" width="1" height="1" fill="#9097FC" />
<rect x="1" y="10" width="1" height="1" fill="#ABB0FE" />
<rect x="2" y="10" width="3" height="1" fill="#9097FC" />
<rect x="6" y="10" width="1" height="1" fill="#6973FA" />
<rect x="7" y="10" width="1" height="4" fill="#4450F6" />
<rect x="8" y="10" width="2" height="1" fill="#202EEF" />
<rect x="11" y="10" width="3" height="1" fill="#202EEF" />
<rect x="14" y="10" width="1" height="1" fill="#ABB0FE" />
<rect x="1" y="11" width="1" height="1" fill="#000000" />
<rect x="2" y="11" width="1" height="1" fill="#202EEF" />
<rect x="3" y="11" width="4" height="1" fill="#000000" />
<rect x="8" y="11" width="1" height="3" fill="#4450F6" />
<rect x="9" y="11" width="4" height="1" fill="#000000" />
<rect x="13" y="11" width="1" height="1" fill="#D0D3FF" />
<rect x="14" y="11" width="1" height="1" fill="#000000" />
<rect x="2" y="12" width="1" height="1" fill="#000000" />
<rect x="3" y="12" width="1" height="1" fill="#202EEF" />
<rect x="4" y="12" width="1" height="1" fill="#000000" />
<rect x="5" y="12" width="1" height="1" fill="#D0D3FF" />
<rect x="6" y="12" width="1" height="1" fill="#000000" />
<rect x="9" y="12" width="1" height="1" fill="#000000" />
<rect x="10" y="12" width="1" height="1" fill="#D0D3FF" />
<rect x="11" y="12" width="1" height="1" fill="#000000" />
<rect x="12" y="12" width="1" height="1" fill="#D0D3FF" />
<rect x="13" y="12" width="1" height="1" fill="#000000" />
<rect x="3" y="13" width="1" height="1" fill="#000000" />
<rect x="4" y="13" width="1" height="1" fill="#202EEF" />
<rect x="5" y="13" width="2" height="1" fill="#4450F6" />
<rect x="9" y="13" width="2" height="1" fill="#4450F6" />
<rect x="11" y="13" width="1" height="1" fill="#D0D3FF" />
<rect x="12" y="13" width="1" height="1" fill="#000000" />
<rect x="4" y="14" width="1" height="1" fill="#000000" />
<rect x="5" y="14" width="1" height="1" fill="#202EEF" />
<rect x="6" y="14" width="4" height="1" fill="#9097FC" />
<rect x="10" y="14" width="1" height="1" fill="#ABB0FE" />
<rect x="11" y="14" width="1" height="1" fill="#000000" />
<rect x="5" y="15" width="6" height="1" fill="#000000" />
</svg>