<?xml version="1.0" encoding="UTF-8" ?>
<svg version="1.1" width="16" height="16" xmlns="http://www.w3.org/2000/svg" shape-rendering="crispEdges">
<rect x="4" y="4" width="8" height="1" fill="#000000" />
<rect x="3" y="5" width="1" height="1" fill="#000000" />
<rect x="4" y="5" width="3" height="1" fill="#FFFFFF" />
<rect x="7" y="5" width="2" height="1" fill="#C3F3FF" opacity="0.952941" />
<rect x="9" y="5" width="2" height="1" fill="#93E6FB" />
<rect x="11" y="5" width="1" height="1" fill="#69D9FB" />
<rect x="12" y="5" width="1" height="1" fill="#000000" />
<rect x="2" y="6" width="1" height="1" fill="#000000" />
<rect x="3" y="6" width="2" height="1" fill="#FFFFFF" />
<rect x="5" y="6" width="1" height="1" fill="#C3F3FF" opacity="0.952941" />
<rect x="6" y="6" width="1" height="1" fill="#69D9FB" />
<rect x="7" y="6" width="3" height="3" fill="#4FC9FA" />
<rect x="10" y="6" width="1" height="1" fill="#3AB9F8" />
<rect x="11" y="6" width="1" height="1" fill="#209FEF" />
<rect x="12" y="6" width="1" height="1" fill="#69D9FB" />
<rect x="13" y="6" width="1" height="1" fill="#000000" />
<rect x="1" y="7" width="1" height="2" fill="#000000" />
<rect x="2" y="7" width="2" height="1" fill="#FFFFFF" />
<rect x="4" y="7" width="1" height="1" fill="#C3F3FF" opacity="0.952941" />
<rect x="5" y="7" width="1" height="1" fill="#93E6FB" />
<rect x="6" y="7" width="1" height="2" fill="#4FC9FA" />
<rect x="10" y="7" width="1" height="2" fill="#4FC9FA" />
<rect x="11" y="7" width="1" height="1" fill="#3AB9F8" />
<rect x="12" y="7" width="1" height="1" fill="#209FEF" />
<rect x="13" y="7" width="1" height="2" fill="#69D9FB" />
<rect x="14" y="7" width="1" height="2" fill="#000000" />
<rect x="2" y="8" width="1" height="1" fill="#FFFFFF" />
<rect x="3" y="8" width="1" height="1" fill="#C3F3FF" opacity="0.952941" />
<rect x="4" y="8" width="1" height="1" fill="#93E6FB" />
<rect x="5" y="8" width="1" height="1" fill="#4FC9FA" />
<rect x="11" y="8" width="1" height="2" fill="#4FC9FA" />
<rect x="12" y="8" width="1" height="1" fill="#3AB9F8" />
<rect x="0" y="9" width="1" height="5" fill="#000000" />
<rect x="1" y="9" width="1" height="2" fill="#C3F3FF" opacity="0.952941" />
<rect x="2" y="9" width="1" height="1" fill="#93E6FB" />
<rect x="3" y="9" width="2" height="1" fill="#4FC9FA" />
<rect x="5" y="9" width="6" height="3" fill="#3AB9F8" />
<rect x="12" y="9" width="2" height="3" fill="#4FC9FA" />
<rect x="14" y="9" width="1" height="3" fill="#69D9FB" />
<rect x="15" y="9" width="1" height="5" fill="#000000" />
<rect x="2" y="10" width="1" height="2" fill="#69D9FB" />
<rect x="3" y="10" width="1" height="2" fill="#4FC9FA" />
<rect x="4" y="10" width="1" height="2" fill="#3AB9F8" />
<rect x="11" y="10" width="1" height="2" fill="#3AB9F8" />
<rect x="1" y="11" width="1" height="2" fill="#93E6FB" />
<rect x="2" y="12" width="1" height="3" fill="#4FC9FA" />
<rect x="3" y="12" width="4" height="1" fill="#000000" />
<rect x="7" y="12" width="2" height="3" fill="#209FEF" />
<rect x="9" y="12" width="4" height="1" fill="#000000" />
<rect x="13" y="12" width="1" height="1" fill="#4FC9FA" />
<rect x="14" y="12" width="1" height="1" fill="#93E6FB" />
<rect x="1" y="13" width="1" height="1" fill="#69D9FB" />
<rect x="3" y="13" width="1" height="2" fill="#3AB9F8" />
<rect x="4" y="13" width="1" height="1" fill="#000000" />
<rect x="5" y="13" width="1" height="1" fill="#C3F3FF" opacity="0.952941" />
<rect x="6" y="13" width="1" height="1" fill="#000000" />
<rect x="9" y="13" width="1" height="1" fill="#000000" />
<rect x="10" y="13" width="1" height="1" fill="#C3F3FF" opacity="0.952941" />
<rect x="11" y="13" width="1" height="1" fill="#000000" />
<rect x="12" y="13" width="1" height="1" fill="#4FC9FA" />
<rect x="13" y="13" width="1" height="1" fill="#69D9FB" />
<rect x="14" y="13" width="1" height="1" fill="#C3F3FF" opacity="0.952941" />
<rect x="1" y="14" width="1" height="1" fill="#000000" />
<rect x="4" y="14" width="1" height="1" fill="#3AB9F8" />
<rect x="5" y="14" width="2" height="1" fill="#209FEF" />
<rect x="9" y="14" width="2" height="1" fill="#209FEF" />
<rect x="11" y="14" width="1" height="1" fill="#3AB9F8" />
<rect x="12" y="14" width="1" height="1" fill="#93E6FB" />
<rect x="13" y="14" width="1" height="1" fill="#C3F3FF" opacity="0.952941" />
<rect x="14" y="14" width="1" height="1" fill="#000000" />
<rect x="2" y="15" width="12" height="1" fill="#000000" />
</svg>